<svg xmlns="http://www.w3.org/2000/svg" viewBox="434 0 500 210">
  <path d="M924.4683502,146.8156351l-16.7481485,24.0915854-19.9171062,29.6260118h-87.338275l58.9207794-22.9798674.0000932-53.8186144-119.1168955-89.487888c-13.3242657-10.010056-37.5716096-10.010056-50.8961752,0l-216.6074284,166.2863698h-38.3963212L689.3726223,7.507542c13.3245656-10.010056,37.5719095-10.010056,50.8961752,0l134.6590724,101.1662867c3.341865-.6581695,6.9848908-.2959521,10.1914735,1.2448422l35.1724274,24.8031286c6.68373,3.2040301,8.0346771,6.5480971,4.1765793,12.0938356Z" fill="#393e96"/>
  <path d="M749.0793264,70.6338483c-2.9432666-2.2116927-5.7145475-4.2547966-8.3543387-6.1193838.9810477,2.2414758,1.426075,4.7506962,1.1327854,7.6269379-.2427309,2.4100647-1.4564472,6.069806-5.7651061,12.8239558-8.7588697,13.726527-19.7125651,15.1844427-32.7800937,24.8743398-4.1063626,3.0448307-27.9556625,20.7186989-26.6812634,41.8440088.7180687,11.8321567,9.052221,20.4013159,15.6163266,27.1356104,11.2772955,11.5842069,24.4763753,19.4888776,31.4348879,21.561704h-224.9600099c1.9722813-1.4976264,4.824493-3.8382579,6.7967742-5.3358843,6.5337334-4.9391404,13.0776527-9.8882085,19.6113861-14.8372766,46.6366212-35.2981586,91.9785335-72.5302771,138.9792511-107.3027531,5.2087757-3.8481856,11.4230739-9.5178219,17.3095485-13.7428891,32.1593628-23.5163879,55.695657-10.8467593,76.6791775,7.0140805,25.015686,21.2929688,50.0071286,36.4926504,74.9386553,58.4610259-29.2199374-16.0968809-56.841814-34.7625483-83.9579806-54.0034761Z" fill="#393e96"/>
</svg>
