<?xml version="1.0" encoding="UTF-8"?>
<svg id="a" data-name="LOGO" xmlns="http://www.w3.org/2000/svg" width="933.9599609" height="386.3831125" viewBox="0 0 933.9599609 386.3831125">
  <g id="b" data-name="ICON">
    <g>
      <path d="M14.4052734,160.458796c6.0400391,5.8085938,13.9394531,11.1518555,24.6269531,11.1518555,14.6367188,0,24.1621094-9.7578125,24.1621094-24.859375V43.1321359h32.9912109v104.0839844c0,36.7080078-22.7685547,53.668457-54.5976562,53.668457-15.7988281,0-30.4355469-4.1821289-41.5878906-15.1015625l14.4052734-25.3242188Z" fill="#393e96"/>
      <path d="M115.2324219,198.0964914V43.1321359h61.1025391c48.5576172,0,82.2451172,30.8999023,82.2451172,77.5981445,0,46.6987305-33.6875,77.3662109-82.2451172,77.3662109h-61.1025391ZM148.2226562,169.0549875h28.1123047c30.6679688,0,48.5576172-22.0712891,48.5576172-48.324707,0-27.4145508-16.7285156-48.5566406-48.5576172-48.5566406h-28.1123047v96.8813477Z" fill="#393e96"/>
      <path d="M345.4658203,40.5764718c32.0615234,0,52.2734375,15.5664062,64.1230469,33.9204102l-27.4150391,14.8691406c-7.2021484-10.9194336-20.4453125-19.515625-36.7080078-19.515625-28.1123047,0-48.5576172,21.6064453-48.5576172,50.8798828,0,29.2739258,20.4453125,50.8803711,48.5576172,50.8803711,14.171875,0,26.7177734-5.8081055,33.4550781-11.8486328v-18.8188477h-41.3544922v-28.3442383h73.8808594v59.2441406c-15.7988281,17.6572266-37.8701172,29.2739258-65.9814453,29.2739258-45.3046875,0-82.4775391-31.597168-82.4775391-80.3867188,0-49.0214844,37.1728516-80.1538086,82.4775391-80.1538086Z" fill="#393e96"/>
      <path d="M110.6035156,352.4026437v-83.2177734l-32.59375,83.2177734h-10.7490234l-32.5927734-83.2177734v83.2177734H10.0488281v-115.6376953h34.5009766l28.0859375,72.1220703,28.0859375-72.1220703h34.6738281v115.6376953h-24.7919922Z" fill="#393e96"/>
      <path d="M149.6162109,352.4026437v-115.6376953h24.6181641v115.6376953h-24.6181641Z" fill="#393e96"/>
      <path d="M268.2001953,352.4026437l-55.1318359-77.6699219v77.6699219h-24.6181641v-115.6376953h25.3125l53.5712891,74.8955078v-74.8955078h24.6181641v115.6376953h-23.7519531Z" fill="#393e96"/>
      <path d="M306.1708984,352.4026437v-115.6376953h81.8310547v21.1503906h-57.2128906v25.1386719h55.9990234v21.1513672h-55.9990234v26.8730469h57.2128906v21.3242188h-81.8310547Z" fill="#393e96"/>
      <path d="M463.9394531,352.4026437l-22.7109375-41.4355469h-18.03125v41.4355469h-24.6181641v-115.6376953h54.0917969c24.0986328,0,38.8349609,15.7763672,38.8349609,37.2744141,0,20.4580078-12.8300781,31.3798828-25.3125,34.3271484l26.0058594,44.0361328h-28.2597656ZM449.0302734,257.915339h-25.8330078v31.9003906h25.8330078c9.8818359,0,17.3369141-6.2412109,17.3369141-15.9501953,0-9.7080078-7.4550781-15.9501953-17.3369141-15.9501953Z" fill="#393e96"/>
      <path d="M582.3544922,352.4026437l-7.28125-19.9375h-51.6640625l-7.2822266,19.9375h-27.0458984l44.7294922-115.6376953h30.8603516l44.5556641,115.6376953h-26.8720703ZM549.2412109,258.0891671l-19.2441406,53.0517578h38.3144531l-19.0703125-53.0517578Z" fill="#393e96"/>
      <path d="M688.6328125,315.821589l21.1513672,10.2285156c-7.8017578,13.6962891-21.3242188,26.8730469-45.0761719,28.2597656l-2.9472656,6.9345703c1.7333984-1.2138672,3.9873047-1.7333984,6.2412109-1.7333984,6.4140625,0,11.6152344,4.8544922,11.6152344,11.9619141,0,9.3623047-8.8417969,14.9101562-19.2441406,14.9101562-8.3212891,0-15.4296875-2.6005859-19.0703125-5.5478516l4.3339844-9.015625c4.3349609,3.4677734,9.3623047,5.2011719,14.0429688,5.2011719,4.6816406,0,9.015625-1.90625,9.015625-5.8945312,0-2.6005859-1.7333984-4.3339844-5.0273438-4.3339844-2.2539062,0-4.1611328,1.0400391-5.5478516,2.4277344l-7.9755859-4.5078125,3.8144531-10.5761719c-30.6865234-2.9472656-54.0917969-26.1787109-54.0917969-59.4658203,0-35.5410156,26.8720703-59.8125,60.6796875-59.8125,26.3525391,0,41.0888672,13.8691406,49.2373047,28.2587891l-21.1513672,10.4023438c-4.8544922-9.3613281-15.2568359-16.8164062-28.0859375-16.8164062-20.1113281,0-35.3671875,16.1230469-35.3671875,37.9677734s15.2558594,37.9677734,35.3671875,37.9677734c12.8291016,0,23.2314453-7.28125,28.0859375-16.8164062Z" fill="#393e96"/>
      <path d="M795.6083984,352.4026437l-7.28125-19.9375h-51.6640625l-7.2822266,19.9375h-27.0458984l44.7294922-115.6376953h30.8603516l44.5556641,115.6376953h-26.8720703ZM752.0927734,215.6135812c-3.4677734,0-6.2412109,3.2939453-6.2412109,10.7490234h-11.6162109c0-14.7363281,6.5878906-23.2324219,18.7236328-23.2324219,6.5888672,0,10.0556641,3.8144531,13.0029297,7.1079102,2.4277344,2.4282227,4.3349609,4.5083008,7.1083984,4.5083008,3.4677734,0,6.2412109-3.2939453,6.2412109-10.5756836h11.6162109c0,14.7368164-6.4150391,23.2319336-18.5507812,23.2319336-6.7617188,0-10.4023438-3.8144531-13.3496094-7.1083984-2.2539062-2.4267578-4.1611328-4.6806641-6.9345703-4.6806641ZM762.4951172,258.0891671l-19.2441406,53.0517578h38.3144531l-19.0703125-53.0517578Z" fill="#393e96"/>
      <path d="M873.4541016,234.8577218c35.0205078,0,60.5058594,24.9648438,60.5058594,59.8125s-25.4853516,59.8125-60.5058594,59.8125c-34.8476562,0-60.3330078-24.9648438-60.3330078-59.8125s25.4853516-59.8125,60.3330078-59.8125ZM873.4541016,256.7024484c-21.3242188,0-35.0205078,16.296875-35.0205078,37.9677734,0,21.4980469,13.6962891,37.9677734,35.0205078,37.9677734s35.1943359-16.4697266,35.1943359-37.9677734c0-21.6708984-13.8701172-37.9677734-35.1943359-37.9677734Z" fill="#393e96"/>
    </g>
    <path d="M924.4683502,146.8156351l-16.7481485,24.0915854-19.9171062,29.6260118h-87.338275l58.9207794-22.9798674.0000932-53.8186144-119.1168955-89.487888c-13.3242657-10.010056-37.5716096-10.010056-50.8961752,0l-216.6074284,166.2863698h-38.3963212L689.3726223,7.507542c13.3245656-10.010056,37.5719095-10.010056,50.8961752,0l134.6590724,101.1662867c3.341865-.6581695,6.9848908-.2959521,10.1914735,1.2448422l35.1724274,24.8031286c6.68373,3.2040301,8.0346771,6.5480971,4.1765793,12.0938356Z" fill="#393e96"/>
    <path d="M749.0793264,70.6338483c-2.9432666-2.2116927-5.7145475-4.2547966-8.3543387-6.1193838.9810477,2.2414758,1.426075,4.7506962,1.1327854,7.6269379-.2427309,2.4100647-1.4564472,6.069806-5.7651061,12.8239558-8.7588697,13.726527-19.7125651,15.1844427-32.7800937,24.8743398-4.1063626,3.0448307-27.9556625,20.7186989-26.6812634,41.8440088.7180687,11.8321567,9.052221,20.4013159,15.6163266,27.1356104,11.2772955,11.5842069,24.4763753,19.4888776,31.4348879,21.561704h-224.9600099c1.9722813-1.4976264,4.824493-3.8382579,6.7967742-5.3358843,6.5337334-4.9391404,13.0776527-9.8882085,19.6113861-14.8372766,46.6366212-35.2981586,91.9785335-72.5302771,138.9792511-107.3027531,5.2087757-3.8481856,11.4230739-9.5178219,17.3095485-13.7428891,32.1593628-23.5163879,55.695657-10.8467593,76.6791775,7.0140805,25.015686,21.2929688,50.0071286,36.4926504,74.9386553,58.4610259-29.2199374-16.0968809-56.841814-34.7625483-83.9579806-54.0034761Z" fill="#393e96"/>
  </g>
</svg>